PathFileType	4	(X/Y/Z)	/Users/itak/Documents/Research/Walk-IL/dataset/trc/00245_00009.trc
DataRate	CameraRate	NumFrames	NumMarkers	Units	OrigDataRate	OrigDataStartFrame	OrigNumFrames
100.000000	100.000000	4	53	mm	100.000000	488	782
Frame#	Time	RPSI			LPSI			L3			STRN			T10			C7			CLAV			RBAK			LBAK			LSHO			LUPA			LAEL			LAOL			LWTS			LWPS			LFRA			LIFD			LHPS			LHTS			RSHO			RUPA			RAEL			RAOL			RWTS			RWPS			RFRA			RIFD			RHTS			RHPS			RBHD			LFHD			RFHD			LBHD			LHIP			RHIP			RASI			LASI			LKNE			LTHI			LANK			LTIP			LTOE			LMT1			LMT5			LHEE			RKNE			RTHI			RANK			RTIP			RTOE			RMT1			RMT5			RHEE			
		X1	Y1	Z1	X2	Y2	Z2	X3	Y3	Z3	X4	Y4	Z4	X5	Y5	Z5	X6	Y6	Z6	X7	Y7	Z7	X8	Y8	Z8	X9	Y9	Z9	X10	Y10	Z10	X11	Y11	Z11	X12	Y12	Z12	X13	Y13	Z13	X14	Y14	Z14	X15	Y15	Z15	X16	Y16	Z16	X17	Y17	Z17	X18	Y18	Z18	X19	Y19	Z19	X20	Y20	Z20	X21	Y21	Z21	X22	Y22	Z22	X23	Y23	Z23	X24	Y24	Z24	X25	Y25	Z25	X26	Y26	Z26	X27	Y27	Z27	X28	Y28	Z28	X29	Y29	Z29	X30	Y30	Z30	X31	Y31	Z31	X32	Y32	Z32	X33	Y33	Z33	X34	Y34	Z34	X35	Y35	Z35	X36	Y36	Z36	X37	Y37	Z37	X38	Y38	Z38	X39	Y39	Z39	X40	Y40	Z40	X41	Y41	Z41	X42	Y42	Z42	X43	Y43	Z43	X44	Y44	Z44	X45	Y45	Z45	X46	Y46	Z46	X47	Y47	Z47	X48	Y48	Z48	X49	Y49	Z49	X50	Y50	Z50	X51	Y51	Z51	X52	Y52	Z52	X53	Y53	Z53	

489	4.88	268.1827392578125	1010.03857421875	-635.8130493164062	330.5578918457031	1026.496826171875	-736.1923217773438	303.839111328125	1108.71435546875	-700.77490234375	524.9550170898438	1279.138305664062	-560.7772216796875	306.8791809082031	1235.202026367188	-694.4014282226562	373.7431335449219	1492.685913085938	-656.3203735351562	507.4552917480469	1398.19189453125	-569.3068237304688	263.6199645996094	1358.818969726562	-640.4805908203125	415.2433776855469	1455.58154296875	-762.2882080078125	519.453125	1451.224487304688	-758.0526733398438	546.48974609375	1340.323608398438	-841.953369140625	614.4932250976562	1141.170532226562	-863.2460327148438	534.7409057617188	1102.88330078125	-864.9984130859375	723.8182373046875	962.672607421875	-719.1373901367188	759.0156860351562	939.663818359375	-792.4227294921875	672.3641967773438	1050.223876953125	-842.0612182617188	807.1005249023438	790.8883056640625	-678.5422973632812	801.766357421875	867.5521850585938	-759.2791137695312	799.1085205078125	888.1211547851562	-694.3641967773438	330.0654907226562	1449.02880859375	-482.9901733398438	272.9423828125	1385.081665039062	-440.8999938964844	215.9094085693359	1106.56640625	-437.4930725097656	240.5582733154297	1102.146240234375	-529.3324584960938	345.5297241210938	889.2205200195312	-394.7608642578125	264.7473754882812	875.5717163085938	-375.7146606445312	227.11328125	1037.1904296875	-414.1611022949219	352.1528930664062	715.3237915039062	-419.1011962890625	365.5807800292969	766.3226928710938	-363.3766479492188	293.9275512695312	767.4774780273438	-354.6889953613281	401.2439575195312	1654.258666992188	-590.4990234375	624.072509765625	1660.23193359375	-533.94482421875	562.0089111328125	1660.747314453125	-455.3383483886719	522.78466796875	1652.342895507812	-663.68212890625	490.0224609375	975.1895141601562	-811.1809692382812	301.5693664550781	966.4037475585938	-496.5530090332031	401.2150573730469	1013.090026855469	-477.1520385742188	551.6972045898438	1010.966430664062	-714.3148803710938	433.9386291503906	494.7326354980469	-790.2345581054688	467.2203674316406	636.8110961914062	-804.7166748046875	285.8334350585938	31.03382873535156	-830.4719848632812	355.2166137695312	280.0247802734375	-825.8606567382812	467.767333984375	39.254150390625	-701.2567749023438	389.5434875488281	39.16737365722656	-686.743408203125	410.5360717773438	30.62215614318848	-804.689208984375	210.4854583740234	44.25077056884766	-803.1004028320312	483.00537109375	503.6165161132812	-458.5013427734375	381.0297546386719	758.4500122070312	-443.9538879394531	616.3636474609375	25.74082946777344	-487.3066101074219	533.8412475585938	396.2354125976562	-454.7974548339844	740.6199951171875	111.4432220458984	-341.7786560058594	754.7093505859375	96.24485015869141	-408.5845031738281	647.9597778320312	51.27766799926758	-383.6322326660156	632.235595703125	23.23225975036621	-569.7205200195312	
490	4.89	274.9190368652344	1008.442016601562	-632.8757934570312	337.5240478515625	1024.86474609375	-733.140380859375	310.0480651855469	1107.158569335938	-698.0277099609375	530.2454223632812	1278.034790039062	-556.5325927734375	313.2616577148438	1233.70458984375	-691.3758544921875	379.2086791992188	1491.345458984375	-652.8701782226562	512.50732421875	1397.057495117188	-565.0537719726562	269.330322265625	1357.07373046875	-637.7965087890625	421.3975219726562	1454.396484375	-758.5989990234375	525.6280517578125	1450.00830078125	-753.7243041992188	553.0155029296875	1338.868774414062	-837.3168334960938	620.3157348632812	1139.326538085938	-857.6090698242188	540.4009399414062	1101.368041992188	-859.7429809570312	727.8264770507812	960.3651123046875	-712.7047119140625	763.5829467773438	937.2842407226562	-785.6884155273438	677.7306518554688	1048.317016601562	-836.0491333007812	809.7527465820312	787.8565063476562	-671.547607421875	805.8314208984375	865.0680541992188	-752.3928833007812	802.5177001953125	885.360107421875	-687.3924560546875	334.3953857421875	1447.438110351562	-479.9085693359375	277.0588989257812	1383.433959960938	-438.197998046875	220.1608428955078	1104.94091796875	-435.0137329101562	245.7682037353516	1100.4267578125	-526.6127319335938	348.3146362304688	886.9737548828125	-391.0550842285156	267.2781372070312	873.7637329101562	-372.8743286132812	230.9216461181641	1035.594970703125	-411.5832824707031	354.4895629882812	713.2388305664062	-415.3207702636719	367.4413146972656	763.9500732421875	-359.4739685058594	295.6006164550781	765.4822387695312	-351.6469421386719	405.9969787597656	1652.973999023438	-586.7000732421875	628.3954467773438	1659.256103515625	-528.62548828125	565.8240966796875	1659.630493164062	-450.44775390625	528.0419921875	1651.286010742188	-659.0662841796875	497.0895385742188	973.7182006835938	-807.8150634765625	308.3114929199219	965.1170043945312	-493.5030517578125	407.6610717773438	1011.759948730469	-473.9132080078125	558.7413940429688	1010.189025878906	-710.7620849609375	439.7651672363281	493.5420532226562	-787.3051147460938	473.6832580566406	635.5269165039062	-801.5584716796875	285.9289245605469	31.35698699951172	-830.2413330078125	358.6202697753906	279.7150268554688	-824.212646484375	467.898193359375	39.0963249206543	-701.0443725585938	389.6733703613281	39.09077453613281	-686.680419921875	410.5795288085938	30.61544609069824	-804.6726684570312	210.7307739257812	45.16933059692383	-803.0291748046875	489.4493713378906	502.5331115722656	-454.6814270019531	388.436767578125	757.5255126953125	-440.5055236816406	620.2601928710938	24.46786308288574	-483.8117065429688	539.9429321289062	394.861083984375	-451.0031433105469	745.4821166992188	109.0719223022461	-338.4896850585938	759.435546875	93.72776794433594	-405.2281494140625	652.358642578125	49.62729644775391	-380.1698913574219	636.283935546875	22.15580368041992	-566.3502807617188	
491	4.9	281.762451171875	1006.949890136719	-629.6228637695312	344.5549926757812	1023.274597167969	-729.8252563476562	316.3956298828125	1105.653442382812	-695.012939453125	535.6365356445312	1277.015869140625	-552.22509765625	319.6447448730469	1232.240234375	-688.1613159179688	384.672119140625	1490.057250976562	-649.2590942382812	517.632080078125	1396.009643554688	-560.7266845703125	275.0702209472656	1355.356567382812	-634.8982543945312	427.4850463867188	1453.281494140625	-754.7696533203125	531.732177734375	1448.898315429688	-749.3271484375	559.43896484375	1337.513305664062	-832.6146240234375	625.943115234375	1137.538208007812	-851.8760375976562	545.8667602539062	1099.954467773438	-854.3262939453125	731.6595458984375	957.9722290039062	-706.3665771484375	767.9059448242188	934.8734741210938	-779.0914916992188	682.90673828125	1046.459716796875	-830.0429077148438	812.1566162109375	784.69189453125	-664.9511108398438	809.5626220703125	862.4140014648438	-745.75048828125	805.6925659179688	882.4158935546875	-680.6578979492188	338.8344116210938	1445.873779296875	-476.6543884277344	281.3028259277344	1381.81103515625	-435.3109436035156	224.4380187988281	1103.365844726562	-432.3988952636719	250.9934539794922	1098.7587890625	-523.7579345703125	351.0938720703125	884.7803955078125	-387.1754150390625	269.7951354980469	872.0031127929688	-369.920166015625	234.7586212158203	1034.051513671875	-408.8693237304688	357.0220947265625	711.1847534179688	-411.282958984375	369.2490844726562	761.632080078125	-355.4149475097656	297.2561340332031	763.5357666015625	-348.4898071289062	410.7225952148438	1651.743530273438	-582.749755859375	632.6859741210938	1658.376220703125	-523.1764526367188	569.6074829101562	1658.569458007812	-445.4383239746094	533.2551879882812	1650.326416015625	-654.3111572265625	504.1400451660156	972.2147216796875	-804.3343505859375	315.3257141113281	963.997314453125	-490.1380920410156	414.39599609375	1010.559631347656	-470.5239562988281	565.91552734375	1009.451904296875	-707.1554565429688	445.7398071289062	492.3142395019531	-784.2095947265625	480.2419738769531	634.2190551757812	-798.2337036132812	286.0372314453125	31.75341606140137	-829.9837646484375	362.115966796875	279.4358215332031	-822.4757080078125	468.0469970703125	38.95923614501953	-700.8629760742188	389.8333129882812	39.02555084228516	-686.6416625976562	410.6290588378906	30.60440254211426	-804.6566772460938	211.0191345214844	46.25739669799805	-802.9481201171875	495.8652954101562	501.4826965332031	-450.6896667480469	396.1144714355469	756.7568359375	-436.7520141601562	623.1878662109375	23.19705009460449	-480.8720397949219	545.954345703125	393.41748046875	-447.1830749511719	750.1580810546875	105.9258346557617	-336.0454711914062	763.7022705078125	90.53304290771484	-402.77490234375	656.275146484375	47.5841178894043	-377.3105163574219	639.1552734375	21.25576019287109	-563.6355590820312	
492	4.91	288.7066955566406	1005.581115722656	-626.0645751953125	351.6530151367188	1021.74365234375	-726.2506103515625	322.9045104980469	1104.203369140625	-691.7212524414062	541.139404296875	1276.088134765625	-547.8518676757812	326.0199890136719	1230.809448242188	-684.7615966796875	390.1271667480469	1488.827758789062	-645.4898071289062	522.8348388671875	1395.05419921875	-556.32666015625	280.8433837890625	1353.67529296875	-631.7905883789062	433.5115966796875	1452.239624023438	-750.8063354492188	537.7735595703125	1447.903076171875	-744.8718872070312	565.7614135742188	1336.2578125	-827.853271484375	631.380859375	1135.8125	-846.0719604492188	551.1398315429688	1098.647705078125	-848.7693481445312	735.3313598632812	955.5159912109375	-700.1370239257812	771.9848022460938	932.4407958984375	-772.6469116210938	687.8865356445312	1044.642578125	-824.0513916015625	814.3382568359375	781.4384155273438	-658.75	812.9909057617188	859.6399536132812	-739.3667602539062	808.6475830078125	879.3239135742188	-674.163818359375	343.3809204101562	1444.336669921875	-473.2284545898438	285.6853637695312	1380.21142578125	-432.2361755371094	228.7614593505859	1101.836791992188	-429.6384582519531	256.2425537109375	1097.140258789062	-520.76171875	353.8832397460938	882.634765625	-383.1416320800781	272.3113403320312	870.282958984375	-366.8605346679688	238.6355743408203	1032.55615234375	-406.0201416015625	359.8135681152344	709.1459350585938	-406.9874877929688	371.010986328125	759.3618774414062	-351.2240295410156	298.9097900390625	761.6351318359375	-345.2316284179688	415.4193725585938	1650.5771484375	-578.6588745117188	636.9414672851562	1657.6064453125	-517.6007690429688	573.3496704101562	1657.575439453125	-440.3160705566406	538.4246826171875	1649.4794921875	-649.4237060546875	511.2087707519531	970.6849365234375	-800.7166748046875	322.5598754882812	963.0595092773438	-486.4711608886719	421.3930053710938	1009.496337890625	-466.9765319824219	573.2147216796875	1008.729675292969	-703.4673461914062	451.8258056640625	491.0665893554688	-780.9490356445312	486.8737487792969	632.9052124023438	-794.7395629882812	286.1649169921875	32.23647308349609	-829.7048950195312	365.6553955078125	279.2124938964844	-820.6639404296875	468.2118225097656	38.84587097167969	-700.7199096679688	390.0245971679688	38.97777938842773	-686.63037109375	410.6839294433594	30.59224319458008	-804.6446533203125	211.3436431884766	47.54191207885742	-802.85205078125	502.2474670410156	500.468505859375	-446.6087036132812	403.9801330566406	756.1314086914062	-432.73046875	625.32568359375	22.06402969360352	-478.531494140625	551.8933715820312	391.9325561523438	-443.4072570800781	754.6082763671875	101.9403228759766	-334.2395324707031	767.554931640625	86.64546966552734	-401.0150146484375	659.6957397460938	45.20711517333984	-375.0240783691406	641.133056640625	20.6232852935791	-561.5678100585938	
